<?xml version="1.0" standalone="no"?>
<!DOCTYPE svg PUBLIC "-//W3C//DTD SVG 20010904//EN"
 "http://www.w3.org/TR/2001/REC-SVG-20010904/DTD/svg10.dtd">
<svg version="1.0" xmlns="http://www.w3.org/2000/svg"
 width="512.000000pt" height="512.000000pt" viewBox="0 0 512.000000 512.000000"
 preserveAspectRatio="xMidYMid meet">

<g transform="translate(0.000000,512.000000) scale(0.100000,-0.100000)"
fill="white" stroke="none">
<path d="M2404 4260 c-672 -65 -1247 -519 -1459 -1153 -196 -586 -69 -1214
339 -1679 88 -100 226 -219 342 -294 148 -97 376 -201 414 -189 10 3 37 26 59
50 l41 45 0 143 0 143 -172 -1 c-160 0 -177 2 -233 24 -91 37 -156 109 -235
261 -62 118 -69 128 -135 177 -39 29 -71 61 -73 71 -5 33 35 57 92 56 88 -2
159 -49 239 -157 127 -171 256 -238 398 -208 115 25 129 30 129 54 1 29 41
126 68 164 l22 30 -63 7 c-444 49 -707 349 -707 808 0 169 39 309 120 430 l41
62 -12 70 c-29 161 -9 356 40 400 19 17 24 17 91 2 79 -18 188 -65 302 -132
l78 -46 87 21 c235 54 458 54 683 0 l86 -21 99 56 c123 69 228 114 301 127 48
9 59 8 75 -7 49 -44 68 -233 40 -394 l-13 -75 40 -60 c81 -122 122 -266 122
-433 0 -361 -158 -622 -449 -741 -79 -33 -174 -57 -258 -67 l-62 -6 25 -38
c14 -21 35 -62 47 -91 19 -50 22 -78 27 -346 l5 -292 39 -41 c22 -22 48 -42
57 -45 22 -7 147 41 263 101 602 309 971 968 916 1637 -56 701 -504 1275
-1168 1497 -205 69 -476 100 -688 80z"/>
</g>
</svg>
