<?xml version="1.0" standalone="no"?>
<!DOCTYPE svg PUBLIC "-//W3C//DTD SVG 20010904//EN"
 "http://www.w3.org/TR/2001/REC-SVG-20010904/DTD/svg10.dtd">
<svg version="1.0" xmlns="http://www.w3.org/2000/svg"
 width="482.000000pt" height="519.000000pt" viewBox="0 0 482.000000 519.000000"
 preserveAspectRatio="xMidYMid meet">

<g transform="translate(0.000000,519.000000) scale(0.100000,-0.100000)"
fill="#000000" stroke="none">
<path d="M380 2270 l0 -1970 1975 0 1975 0 0 325 0 325 -110 0 -110 0 0 -220
0 -220 -1760 0 -1760 0 0 1760 0 1760 1760 0 1760 0 0 -220 0 -220 110 0 110
0 0 325 0 325 -1975 0 -1975 0 0 -1970z"/>
<path d="M1420 2270 l0 -1220 255 0 255 0 0 455 0 455 343 0 344 0 214 -452
214 -453 278 -3 277 -2 -245 490 c-135 269 -245 493 -245 497 0 5 35 26 78 47
111 57 209 157 262 267 22 46 47 111 56 144 22 82 30 283 15 385 -41 275 -199
474 -443 556 -148 51 -207 54 -960 54 l-698 0 0 -1220z m1402 762 c32 -13 75
-41 99 -65 61 -61 82 -114 87 -222 7 -158 -45 -258 -166 -317 l-67 -33 -422
-3 -423 -3 0 336 0 336 418 -3 c406 -3 418 -4 474 -26z"/>
</g>
</svg>
